<?xml version="1.0" encoding="UTF-8"?>
<svg version="1.1" xmlns="http://www.w3.org/2000/svg" width="100" height="100">
<path d="M0 0 C22.44 0 44.88 0 68 0 C68 5.61 68 11.22 68 17 C74.4 16.8 74.4 16.8 76 15 C78.9375 14.8125 78.9375 14.8125 82 15 C84 17 84 17 84.25 20 C84 23 84 23 82 25 C78.9375 25.1875 78.9375 25.1875 76 25 C75.67 24.67 75.34 24.34 75 24 C72.67182036 23.63239269 70.3381615 23.29758419 68 23 C68 27.62 68 32.24 68 37 C72.34184202 36.81535634 72.34184202 36.81535634 76 35 C78.9375 34.8125 78.9375 34.8125 82 35 C84 37 84 37 84.25 40 C84 43 84 43 82 45 C78.04841529 45.34361606 75.39464446 45.08901197 72 43 C71.896875 44.010625 71.79375 45.02125 71.6875 46.0625 C70.96295233 50.21218208 69.77730734 53.21356263 68 57 C72.34184202 56.81535634 72.34184202 56.81535634 76 55 C78.9375 54.8125 78.9375 54.8125 82 55 C84 57 84 57 84.25 60 C84 63 84 63 82 65 C78.9375 65.1875 78.9375 65.1875 76 65 C75.67 64.67 75.34 64.34 75 64 C72.8798986 63.76345976 70.75311717 63.58548166 68.625 63.4375 C67.46226563 63.35371094 66.29953125 63.26992187 65.1015625 63.18359375 C59.82692131 62.87136688 58.24421248 63.32643175 54.0625 66.5625 C50.0263046 69.56020481 45.96468235 72.41726005 41.6875 75.0625 C40.74261719 75.65160156 39.79773437 76.24070312 38.82421875 76.84765625 C35.24022456 78.31000519 33.6979766 78.11628362 30 77 C27.23773222 75.73801924 24.62479529 74.27455215 22 72.75 C21.31421875 72.36714844 20.6284375 71.98429687 19.921875 71.58984375 C16.60426843 69.69678199 13.75132206 67.83975789 10.98828125 65.1953125 C7.24368442 62.44437992 4.58971693 62.55808036 0.1875 63.125 C-0.49248047 63.186875 -1.17246094 63.24875 -1.87304688 63.3125 C-5.22733504 63.42622881 -5.22733504 63.42622881 -8 65 C-10.9375 65.1875 -10.9375 65.1875 -14 65 C-16 63 -16 63 -16.25 60 C-16 57 -16 57 -14 55 C-10.9375 54.8125 -10.9375 54.8125 -8 55 C-7.67 55.33 -7.34 55.66 -7 56 C-4.67182036 56.36760731 -2.3381615 56.70241581 0 57 C-0.433125 56.23816406 -0.433125 56.23816406 -0.875 55.4609375 C-3.21514494 51.12191875 -4.50606482 48.06064817 -4 43 C-4.53625 43.33 -5.0725 43.66 -5.625 44 C-8.5929092 45.24964598 -10.80799279 45.27756584 -14 45 C-16 43 -16 43 -16.25 40 C-16 37 -16 37 -14 35 C-10.9375 34.8125 -10.9375 34.8125 -8 35 C-7.67 35.33 -7.34 35.66 -7 36 C-4.67182036 36.36760731 -2.3381615 36.70241581 0 37 C0 32.38 0 27.76 0 23 C-4.34184202 23.18464366 -4.34184202 23.18464366 -8 25 C-10.9375 25.1875 -10.9375 25.1875 -14 25 C-16 23 -16 23 -16.25 20 C-16 17 -16 17 -14 15 C-10.9375 14.8125 -10.9375 14.8125 -8 15 C-7.67 15.33 -7.34 15.66 -7 16 C-4.69 16.33 -2.38 16.66 0 17 C0 11.39 0 5.78 0 0 Z " fill="#4A4DFE" transform="translate(16,15)"/>
<path d="M0 0 C22.44 0 44.88 0 68 0 C68 5.61 68 11.22 68 17 C74.4 16.8 74.4 16.8 76 15 C78.9375 14.8125 78.9375 14.8125 82 15 C84 17 84 17 84.25 20 C84 23 84 23 82 25 C78.9375 25.1875 78.9375 25.1875 76 25 C75.67 24.67 75.34 24.34 75 24 C72.67182036 23.63239269 70.3381615 23.29758419 68 23 C68 27.62 68 32.24 68 37 C72.34184202 36.81535634 72.34184202 36.81535634 76 35 C78.9375 34.8125 78.9375 34.8125 82 35 C84 37 84 37 84.25 40 C84 43 84 43 82 45 C78.9375 45.1875 78.9375 45.1875 76 45 C75.67 44.67 75.34 44.34 75 44 C70.71 43.67 66.42 43.34 62 43 C62 30.79 62 18.58 62 6 C43.52 6 25.04 6 6 6 C6 18.21 6 30.42 6 43 C-0.435 43.495 -0.435 43.495 -7 44 C-7.495 44.495 -7.495 44.495 -8 45 C-10.9375 45.1875 -10.9375 45.1875 -14 45 C-16 43 -16 43 -16.25 40 C-16 37 -16 37 -14 35 C-10.9375 34.8125 -10.9375 34.8125 -8 35 C-7.67 35.33 -7.34 35.66 -7 36 C-4.67182036 36.36760731 -2.3381615 36.70241581 0 37 C0 32.38 0 27.76 0 23 C-4.34184202 23.18464366 -4.34184202 23.18464366 -8 25 C-10.9375 25.1875 -10.9375 25.1875 -14 25 C-16 23 -16 23 -16.25 20 C-16 17 -16 17 -14 15 C-10.9375 14.8125 -10.9375 14.8125 -8 15 C-7.67 15.33 -7.34 15.66 -7 16 C-4.69 16.33 -2.38 16.66 0 17 C0 11.39 0 5.78 0 0 Z " fill="#4242BE" transform="translate(16,15)"/>
<path d="M0 0 C3.44376725 -0.48145872 6.57369648 -0.67673491 10 0 C11.60696079 1.7366291 12.41964677 3.52679354 13.4765625 5.640625 C17.84133917 12.40043298 28.29042655 19.42520964 36 22 C40.59233814 21.74615216 44.00863148 19.4073958 47.75 16.9375 C48.66990723 16.33675659 48.66990723 16.33675659 49.60839844 15.72387695 C56.09828977 11.39983781 62.45756732 7.08486537 66 0 C69.3 0 72.6 0 76 0 C75.46148032 5.27749285 74.22656164 9.25645564 72 14 C76.34184202 13.81535634 76.34184202 13.81535634 80 12 C82.9375 11.8125 82.9375 11.8125 86 12 C88 14 88 14 88.25 17 C88 20 88 20 86 22 C82.9375 22.1875 82.9375 22.1875 80 22 C79.67 21.67 79.34 21.34 79 21 C76.8798986 20.76345976 74.75311717 20.58548166 72.625 20.4375 C71.46226563 20.35371094 70.29953125 20.26992187 69.1015625 20.18359375 C63.82692131 19.87136688 62.24421248 20.32643175 58.0625 23.5625 C54.0263046 26.56020481 49.96468235 29.41726005 45.6875 32.0625 C44.74261719 32.65160156 43.79773437 33.24070313 42.82421875 33.84765625 C39.24022456 35.31000519 37.6979766 35.11628362 34 34 C31.23773222 32.73801924 28.62479529 31.27455215 26 29.75 C25.31421875 29.36714844 24.6284375 28.98429687 23.921875 28.58984375 C20.60426843 26.69678199 17.75132206 24.83975789 14.98828125 22.1953125 C11.24368442 19.44437992 8.58971693 19.55808036 4.1875 20.125 C3.50751953 20.186875 2.82753906 20.24875 2.12695312 20.3125 C-1.22733504 20.42622881 -1.22733504 20.42622881 -4 22 C-6.9375 22.1875 -6.9375 22.1875 -10 22 C-12 20 -12 20 -12.25 17 C-12 14 -12 14 -10 12 C-6.9375 11.8125 -6.9375 11.8125 -4 12 C-3.67 12.33 -3.34 12.66 -3 13 C-0.67182036 13.36760731 1.6618385 13.70241581 4 14 C3.71125 13.49210937 3.4225 12.98421875 3.125 12.4609375 C0.78485506 8.12191875 -0.50606482 5.06064817 0 0 Z " fill="#39BAF7" transform="translate(12,58)"/>
<path d="M0 0 C0.33 0.99 0.66 1.98 1 3 C5.34184202 2.81535634 5.34184202 2.81535634 9 1 C11.9375 0.8125 11.9375 0.8125 15 1 C17 3 17 3 17.25 6 C17 9 17 9 15 11 C11.9375 11.1875 11.9375 11.1875 9 11 C8.67 10.67 8.34 10.34 8 10 C5.81707226 9.76518307 3.62796826 9.58636677 1.4375 9.4375 C0.23996094 9.35371094 -0.95757812 9.26992187 -2.19140625 9.18359375 C-3.11824219 9.12300781 -4.04507813 9.06242187 -5 9 C-4.32084333 4.68914241 -3.3222714 2.89359122 0 0 Z " fill="#4243BF" transform="translate(83,69)"/>
<path d="M0 0 C5.22321429 4.82142857 5.22321429 4.82142857 6 9 C5.07316406 9.06058594 4.14632813 9.12117188 3.19140625 9.18359375 C1.99386719 9.26738281 0.79632812 9.35117188 -0.4375 9.4375 C-1.63246094 9.51871094 -2.82742188 9.59992188 -4.05859375 9.68359375 C-6.88570244 9.67656114 -6.88570244 9.67656114 -8 11 C-10.9375 11.1875 -10.9375 11.1875 -14 11 C-16 9 -16 9 -16.25 6 C-16 3 -16 3 -14 1 C-10.9375 0.8125 -10.9375 0.8125 -8 1 C-7.67 1.33 -7.34 1.66 -7 2 C-4.67182036 2.36760731 -2.3381615 2.70241581 0 3 C0 2.01 0 1.02 0 0 Z " fill="#4243BF" transform="translate(16,69)"/>
<path d="M0 0 C1.32 0 2.64 0 4 0 C4 5.61 4 11.22 4 17 C2.68 17 1.36 17 0 17 C0 11.39 0 5.78 0 0 Z " fill="#EDF7F5" transform="translate(48,38)"/>
</svg>
