<svg xmlns="http://www.w3.org/2000/svg" viewBox="0 0 64 64"><title>Artboard-21</title><g id="Web_shieldvv" data-name="Web shieldvv"><path d="M61,8H14V7a1,1,0,0,0-1-1H3A1,1,0,0,0,2,7V57a1,1,0,0,0,1,1H61a1,1,0,0,0,1-1V9A1,1,0,0,0,61,8Z" style="fill:#e6ecff"/><rect x="26" y="8" width="12" height="8" style="fill:#376cfb"/><rect x="14" y="8" width="12" height="8" style="fill:#4294ff"/><path d="M61,8H50v8H62V9A1,1,0,0,0,61,8Z" style="fill:#376cfb"/><rect x="38" y="8" width="12" height="8" style="fill:#4294ff"/><path d="M10,12H6a1,1,0,0,1,0-2h4a1,1,0,0,1,0,2Z" style="fill:#4294ff"/><path d="M22,13H18a1,1,0,0,1,0-2h4a1,1,0,0,1,0,2Z" style="fill:#376cfb"/><path d="M34,13H30a1,1,0,0,1,0-2h4a1,1,0,0,1,0,2Z" style="fill:#2946ed"/><path d="M46,13H42a1,1,0,0,1,0-2h4a1,1,0,0,1,0,2Z" style="fill:#376cfb"/><path d="M58,13H54a1,1,0,0,1,0-2h4a1,1,0,0,1,0,2Z" style="fill:#2946ed"/><path d="M44.3848,26.0771l-12-5a.9926.9926,0,0,0-.77,0l-12,5A1,1,0,0,0,19,27v7A20.4443,20.4443,0,0,0,31.6152,52.9229a.9988.9988,0,0,0,.77,0A20.4443,20.4443,0,0,0,45,34V27A1,1,0,0,0,44.3848,26.0771Z" style="fill:#4294ff"/><path d="M41.3848,28.0771l-9-3.75a.9926.9926,0,0,0-.77,0l-9,3.75A1,1,0,0,0,22,29v5a17.4106,17.4106,0,0,0,9.5464,15.59,1.0032,1.0032,0,0,0,.9072,0A17.4106,17.4106,0,0,0,42,34V29A1,1,0,0,0,41.3848,28.0771Z" style="fill:#376cfb"/><path d="M32.4536,49.59A17.4106,17.4106,0,0,0,42,34V29a1,1,0,0,0-.6152-.9229l-9-3.75A.9933.9933,0,0,0,32,24.25V49.6982A1.0016,1.0016,0,0,0,32.4536,49.59Z" style="fill:#2946ed"/></g></svg>